HIERARCHY
ROOT Hips
{
	OFFSET 0.00000 0.00000 0.00000
	CHANNELS 6 Xposition Yposition Zposition Zrotation Yrotation Xrotation 
	JOINT LHipJoint
	{
		OFFSET 0 0 0
		CHANNELS 3 Zrotation Yrotation Xrotation
		JOINT LeftHip
		{
			OFFSET 1.38280 -1.96574 0.54427
			CHANNELS 3 Zrotation Yrotation Xrotation
			JOINT LeftKnee
			{
				OFFSET 2.72096 -7.47578 0.00000
				CHANNELS 3 Zrotation Yrotation Xrotation
				JOINT LeftAnkle
				{
					OFFSET 2.73041 -7.50176 0.00000
					CHANNELS 3 Zrotation Yrotation Xrotation
					JOINT LeftToe
					{
						OFFSET 0.16150 -0.44371 2.18031
						CHANNELS 3 Zrotation Yrotation Xrotation
						End Site
						{
							OFFSET 0.00000 -0.00000 1.12127
						}
					}
				}
			}
		}
	}
	JOINT RHipJoint
	{
		OFFSET 0 0 0
		CHANNELS 3 Zrotation Yrotation Xrotation
		JOINT RightHip
		{
			OFFSET -1.57224 -1.96575 0.54427
			CHANNELS 3 Zrotation Yrotation Xrotation
			JOINT RightKnee
			{
				OFFSET -2.95935 -8.13076 0.00000
				CHANNELS 3 Zrotation Yrotation Xrotation
				JOINT RightAnkle
				{
					OFFSET -2.52345 -6.93311 0.00000
					CHANNELS 3 Zrotation Yrotation Xrotation
					JOINT RightToe
					{
						OFFSET -0.04475 -0.10171 1.86688
						CHANNELS 3 Zrotation Yrotation Xrotation
						End Site
						{
							OFFSET -0.00000 -0.00000 0.95157
						}
					}
				}
			}
		}
	}
	JOINT lowerback
	{
		OFFSET 0 0 0
		CHANNELS 3 Zrotation Yrotation Xrotation
		JOINT Chest
		{
			OFFSET 0.00669 2.07367 0.09104
			CHANNELS 3 Zrotation Yrotation Xrotation
			JOINT Chest2
			{
				OFFSET -0.00664 2.06198 -0.04732
				CHANNELS 3 Zrotation Yrotation Xrotation
				JOINT lowerneck
				{
					OFFSET 0 0 0
					CHANNELS 3 Zrotation Yrotation Xrotation
					JOINT Neck
					{
						OFFSET -0.00021 1.49948 0.16345
						CHANNELS 3 Zrotation Yrotation Xrotation
						JOINT Head
						{
							OFFSET 0.06080 1.50567 -0.26702
							CHANNELS 3 Zrotation Yrotation Xrotation
							End Site
							{
								OFFSET 0.01726 1.56470 -0.11854
							}
						}
					}
				}
				JOINT LeftCollar
				{
					OFFSET 0 0 0
					CHANNELS 3 Zrotation Yrotation Xrotation
					JOINT LeftShoulder
					{
						OFFSET 3.14993 0.82932 -0.22488
CHANNELS 3 Zrotation Xrotation Yrotation
						JOINT LeftElbow
						{
OFFSET 0 -5.682360 -0.000000
CHANNELS 3 Zrotation Xrotation Yrotation
							JOINT LeftWrist
							{
OFFSET 0 -3.171120 0.000000
CHANNELS 3 Zrotation Xrotation Yrotation
								JOINT lhand
								{
									OFFSET 0 0 0
CHANNELS 3 Zrotation Xrotation Yrotation
									JOINT LFingers
									{
OFFSET 0 -0.632690 0.000000
CHANNELS 3 Zrotation Xrotation Yrotation
										End Site
										{
OFFSET 0 -0.510090 0.000000
										}
									}
								}
								JOINT LThumb
								{
OFFSET 0 0.000000 0.000000
CHANNELS 3 Zrotation Xrotation Yrotation
									End Site
									{
OFFSET 0 -0.517880 0.517880
									}
								}
							}
						}
					}
				}
				JOINT RightCollar
				{
					OFFSET 0 0 0
					CHANNELS 3 Zrotation Yrotation Xrotation
					JOINT RightShoulder
					{
						OFFSET -3.10571 0.91279 -0.33334
CHANNELS 3 Zrotation Xrotation Yrotation
						JOINT RightElbow
						{
OFFSET 0 -5.871200 -0.000000
CHANNELS 3 Zrotation Xrotation Yrotation
							JOINT RightWrist
							{
OFFSET 0 -3.375890 0.000000
CHANNELS 3 Zrotation Xrotation Yrotation
								JOINT rhand
								{
									OFFSET 0 0 0
CHANNELS 3 Zrotation Xrotation Yrotation
									JOINT RFingers
									{
OFFSET 0 -0.603260 0.000000
CHANNELS 3 Zrotation Xrotation Yrotation
										End Site
										{
OFFSET 0 -0.486360 0.000000
										}
									}
								}
								JOINT RThumb
								{
OFFSET 0 0.000000 0.000000
CHANNELS 3 Zrotation Xrotation Yrotation
									End Site
									{
OFFSET 0 -0.493790 0.493790
									}
								}
							}
						}
					}
				}
			}
		}
	}
}
MOTION
Frames: 7
Frame Time: 0.008333333333333333
9.271100 18.171000 -1.815800 179.950000 -81.164800 -169.344000 0.000000 0.000000 0.000000 -19.040700 -5.982000 -18.172800 3.838900 11.942900 35.530400 1.715900 -7.474300 -23.479100 1.096800 -6.654900 -18.696900 0.000000 0.000000 0.000000 19.947100 13.395900 -18.925700 -3.500400 -11.464100 33.861700 0.456600 12.204200 7.534200 -5.740000 -14.171600 43.929200 -1.852600 -0.353300 -8.298700 2.033200 -0.411900 1.591300 3.119300 -0.317500 6.360100 -0.911900 1.647900 -18.791900 -2.128500 2.925200 22.981400 -0.202800 0.902500 10.506200 -0.000000 0.000000 0.000000 3.826500 0.725200 -34.339900 18.315400 -28.559200 4.699100 16.443600 -7.534200 -34.946800 0.000000 0.000000 0.000000 -7.125000 0.000000 0.000000 -21.430900 64.837600 10.510600 -0.000000 0.000000 0.000000 -0.329700 0.072800 -6.019200 -15.451300 -24.771000 -3.412800 -23.415300 6.249000 -28.747600 0.000000 0.000000 0.000000 7.125000 0.000000 -0.000000 4.213100 -0.816900 4.284300
8.945787 18.100482 -2.283054 176.411140 -84.062110 -165.874611 0.000000 0.000000 0.000000 -16.250026 -7.212517 -29.842687 8.489359 16.467309 54.306233 1.185745 -3.252501 -19.761476 2.612706 -10.039994 -29.106260 0.000000 0.000000 0.000000 21.641072 11.659282 -17.947802 -3.614877 -11.629479 34.433430 0.655292 14.209801 6.507573 -5.719296 -14.150696 43.844492 -0.580260 0.430484 -7.088013 2.215715 0.481005 2.070816 2.700154 0.161769 6.119473 -0.733088 0.795306 -18.849637 -0.581801 1.314990 21.754863 0.090239 0.410646 10.046423 0.000000 0.000000 0.000000 3.259957 0.939542 -35.225024 18.487014 -28.776327 4.781410 16.326926 -6.903102 -35.269123 0.000000 0.000000 0.000000 -7.125000 0.000000 0.000000 -21.903207 65.098878 10.884804 0.000000 0.000000 0.000000 1.263834 -0.438732 2.122543 -15.921202 -25.413661 -3.612077 -29.460006 2.108004 -29.637469 0.000000 0.000000 0.000000 7.125000 0.000000 0.000000 0.860301 -3.178881 0.906763
8.398842 18.117220 -2.636210 164.881768 -84.449665 -153.848107 0.000000 0.000000 0.000000 -16.226444 -10.772223 -39.282154 9.275948 16.981924 57.039331 1.060800 0.442638 -19.634839 2.179446 -9.229964 -26.517656 0.000000 0.000000 0.000000 21.899858 11.302207 -15.664392 -3.353454 -11.246324 33.115301 0.761064 15.231225 5.655695 -5.641509 -14.071672 43.525281 -0.495938 1.017824 -7.445828 1.745944 1.292993 1.878263 2.264504 0.579178 6.090576 -0.548390 0.646461 -18.936230 -0.524489 1.031147 22.290582 0.040109 0.294970 10.256030 0.000000 0.000000 0.000000 1.934339 3.140184 -34.175887 19.077682 -29.515092 5.069067 15.832598 -7.928788 -34.940618 0.000000 0.000000 0.000000 -7.125000 0.000000 0.000000 -22.110664 64.663658 10.770227 0.000000 0.000000 0.000000 -3.735221 -1.384451 15.748001 -18.051955 -28.223571 -4.573812 -28.813833 -0.698977 -32.088084 0.000000 0.000000 0.000000 7.125000 0.000000 0.000000 1.690937 -5.594244 1.848524
7.696947 18.164782 -2.907639 168.530376 -83.436462 -156.847087 0.000000 0.000000 0.000000 -18.014742 -12.383913 -42.868948 4.982958 13.362598 40.744932 0.864595 0.013871 -17.584059 2.449022 -9.744502 -28.153355 0.000000 0.000000 0.000000 22.939832 9.377814 -12.236185 -2.571113 -9.965894 28.866438 0.650113 14.208219 7.076728 -5.571706 -14.000053 43.237590 0.111598 1.350107 -7.569050 1.552505 1.689407 1.751764 1.770676 0.801607 6.034021 -0.177904 0.963356 -18.869929 -0.933851 1.484285 21.313388 -0.101376 0.503375 9.899955 0.000000 0.000000 0.000000 1.170295 4.460818 -35.116772 17.957846 -28.103132 4.529370 14.497204 -8.680468 -35.166899 0.000000 0.000000 0.000000 -7.125000 0.000000 0.000000 -23.834460 64.501918 11.564680 0.000000 0.000000 0.000000 -9.193999 -4.523006 21.051243 -19.340510 -29.839610 -5.199205 -27.925055 -1.047258 -31.876569 0.000000 0.000000 0.000000 7.125000 0.000000 0.000000 2.146602 -5.137309 2.331767
6.813543 18.170389 -3.161833 178.092573 -82.209828 -166.074083 0.000000 0.000000 0.000000 -19.817734 -12.790528 -42.217183 1.564474 7.891720 22.386285 0.636767 1.370944 -15.630906 2.125416 -9.121906 -26.177832 0.000000 0.000000 0.000000 24.621403 6.406177 -7.819760 -1.787388 -8.408210 23.961183 0.426835 12.385014 9.524259 -5.501256 -13.926913 42.945495 0.333413 1.316593 -7.865654 1.604371 1.616107 1.614772 1.696831 0.771824 6.065553 0.374122 1.368534 -18.798488 -0.723615 1.822482 21.604277 -0.072694 0.724573 9.994638 0.000000 0.000000 0.000000 1.373357 4.549912 -35.475296 16.991134 -26.846025 4.083342 13.636262 -7.954397 -35.475401 0.000000 0.000000 0.000000 -7.125000 0.000000 0.000000 -25.116924 64.540970 12.246635 0.000000 0.000000 0.000000 -11.055488 -6.536081 18.702083 -20.498309 -31.237808 -5.787590 -28.189551 -2.247622 -30.446827 0.000000 0.000000 0.000000 7.125000 0.000000 0.000000 1.733321 -3.705677 1.842508
5.627261 17.993394 -3.436487 187.098095 -79.337228 -175.123210 0.000000 0.000000 0.000000 -18.489765 -13.275339 -41.348462 1.384010 7.443788 21.036939 0.726921 4.066573 -18.087385 1.052343 -6.522094 -18.307373 0.000000 0.000000 0.000000 26.125282 3.235191 -2.927598 -1.437200 -7.579403 21.443752 0.151019 10.784559 12.784794 -5.230655 -13.638916 41.809932 0.165316 1.323384 -8.161502 1.583511 1.642750 1.408581 1.777213 0.780200 6.011948 0.672030 2.013821 -18.659356 -0.949159 2.686271 21.489732 -0.082500 1.120250 9.941050 0.000000 0.000000 0.000000 2.162293 4.494587 -33.766294 16.839638 -26.645839 4.015125 13.641165 -7.463280 -35.340406 0.000000 0.000000 0.000000 -7.125000 0.000000 0.000000 -24.962891 64.422846 12.098766 0.000000 0.000000 0.000000 -10.412081 -4.935460 19.162120 -22.245481 -33.253371 -6.719925 -27.489373 -2.904232 -30.962932 0.000000 0.000000 0.000000 7.125000 0.000000 0.000000 2.223676 -4.069474 2.377593
4.007882 17.984982 -3.774760 183.357165 -77.025652 -170.959993 0.000000 0.000000 0.000000 -19.430177 -12.255000 -39.768375 2.038173 8.944344 25.621927 0.067944 6.426252 -10.735060 0.242803 -3.161735 -8.730043 0.000000 0.000000 0.000000 24.532862 3.545677 0.930945 -1.733399 -8.286806 23.588888 -0.230463 6.640152 13.851302 -3.990976 -12.148134 36.258398 -2.283706 0.678810 -10.230444 0.708960 1.135221 0.920060 2.211713 0.456925 6.658325 0.597939 2.888644 -19.069463 -1.288527 4.023179 20.521409 -0.001599 1.709023 9.691042 0.000000 0.000000 0.000000 3.431368 4.232251 -31.019155 16.043013 -25.578755 3.664574 13.824622 -6.543478 -35.715905 0.000000 0.000000 0.000000 -7.125000 0.000000 0.000000 -25.179066 64.805404 12.432688 0.000000 0.000000 0.000000 -7.504081 -0.879374 18.297829 -20.769860 -31.558387 -5.929161 -26.794481 -0.778262 -30.839364 0.000000 0.000000 0.000000 7.125000 0.000000 0.000000 2.595563 -3.766548 2.763187
